<svg xmlns="http://www.w3.org/2000/svg" viewBox="0 0 800 600" width="800" height="600">
  <defs>
    <linearGradient id="g" x1="0" x2="1">
      <stop offset="0%" stop-color="#2b9ed8"/>
      <stop offset="100%" stop-color="#0d6efd"/>
    </linearGradient>
  </defs>
  <rect width="100%" height="100%" fill="transparent"/>
  <g transform="translate(50,50)">
    <circle cx="200" cy="180" r="120" fill="url(#g)" opacity="0.15" />
    <rect x="340" y="120" width="260" height="160" rx="12" fill="#fff" opacity="0.9" />
    <g transform="translate(360,140)" fill="#0d6efd">
      <rect x="0" y="0" width="140" height="18" rx="6" />
      <rect x="0" y="32" width="220" height="14" rx="6" />
      <rect x="0" y="58" width="180" height="14" rx="6" />
    </g>
    <g transform="translate(80,140)">
      <rect x="0" y="0" width="220" height="140" rx="12" fill="#fff" opacity="0.9" />
      <g transform="translate(28,24)" fill="#2b9ed8">
        <rect x="0" y="0" width="24" height="24" rx="6" />
        <rect x="36" y="0" width="120" height="20" rx="6" />
        <rect x="0" y="36" width="180" height="14" rx="6" />
        <rect x="0" y="62" width="140" height="14" rx="6" />
      </g>
    </g>
    <g transform="translate(560,340)" opacity="0.9">
      <path d="M0 40 C20 0, 80 0, 100 40 L100 100 L0 100 Z" fill="#2b9ed8" />
    </g>
  </g>
</svg>
