<svg xmlns="http://www.w3.org/2000/svg" style="display:none">
  <symbol id="icon-user" viewBox="0 0 24 24"><path fill="#fff" d="M12 12a5 5 0 1 0-5-5 5 5 0 0 0 5 5zm0 2c-4.418 0-8 2.239-8 5v1h16v-1c0-2.761-3.582-5-8-5z"/></symbol>
  <symbol id="icon-calendar" viewBox="0 0 24 24"><path fill="#fff" d="M7 10h10v2H7zm-4 8h18V6H3z"/></symbol>
  <symbol id="icon-notif" viewBox="0 0 24 24"><path fill="#fff" d="M12 22a2 2 0 0 0 2-2H10a2 2 0 0 0 2 2zM18 16v-5a6 6 0 1 0-12 0v5l-2 2v1h16v-1z"/></symbol>
</svg>
